<?xml version="1.0" standalone="no"?>
<!DOCTYPE svg PUBLIC "-//W3C//DTD SVG 20010904//EN"
 "http://www.w3.org/TR/2001/REC-SVG-20010904/DTD/svg10.dtd">
<svg version="1.0" xmlns="http://www.w3.org/2000/svg"
 width="720.000000pt" height="720.000000pt" viewBox="0 0 720.000000 720.000000"
 preserveAspectRatio="xMidYMid meet">
<metadata>
Created by potrace 1.11, written by Peter Selinger 2001-2013
</metadata>
<g transform="translate(0.000000,720.000000) scale(0.100000,-0.100000)"
fill="#000000" stroke="none">
<path d="M3645 7180 c-121 -31 -225 -87 -332 -177 l-52 -44 -63 28 c-54 23
-77 27 -158 27 -88 1 -100 -2 -160 -31 -36 -18 -82 -49 -104 -68 l-38 -36 -65
16 c-76 19 -129 18 -200 -6 -44 -15 -97 -42 -113 -59 -3 -3 -16 -15 -30 -27
l-25 -22 -48 44 c-98 89 -208 117 -305 75 -29 -12 -52 -26 -52 -31 0 -5 -5 -9
-11 -9 -12 0 -99 -90 -99 -102 0 -5 -30 -8 -67 -8 -192 -1 -362 -84 -438 -215
-48 -82 -67 -160 -69 -283 l-1 -73 -40 -30 c-118 -87 -208 -204 -238 -305 -21
-72 -16 -176 12 -241 l23 -53 -41 -49 c-54 -64 -97 -160 -100 -221 -2 -55 20
-141 47 -183 18 -26 18 -29 1 -80 -51 -149 13 -317 163 -431 25 -19 42 -43 53
-76 16 -49 65 -124 94 -147 27 -21 75 -42 111 -48 19 -3 35 -7 37 -8 1 -2 3
-32 4 -67 3 -153 50 -282 129 -353 l47 -42 -3 -1260 c-2 -1249 -2 -1260 -22
-1295 -21 -36 -62 -175 -77 -265 -3 -16 -8 -38 -11 -48 -11 -36 -27 -197 -27
-267 1 -135 34 -251 84 -296 30 -27 142 -89 229 -128 36 -16 73 -33 83 -38 20
-10 251 -87 280 -93 10 -2 26 -6 35 -9 9 -3 31 -8 49 -11 18 -3 43 -9 56 -14
13 -5 41 -12 63 -15 21 -4 89 -16 149 -27 61 -11 130 -22 155 -25 25 -2 60 -7
79 -9 18 -3 59 -8 90 -11 31 -3 70 -7 86 -9 161 -20 712 -27 913 -12 198 14
335 31 487 58 33 6 71 13 85 15 14 2 36 6 50 9 14 3 36 8 50 11 14 3 68 16
120 30 52 14 102 27 110 29 92 19 350 122 469 186 188 101 267 175 309 289 16
45 39 160 35 180 0 3 -3 41 -7 86 -9 136 -54 298 -121 439 -28 58 -34 84 -38
157 -2 49 -1 89 2 89 3 1 29 3 56 4 109 7 265 34 323 56 15 6 35 12 46 15 10
2 47 17 82 33 255 119 434 328 523 611 11 36 22 76 25 90 2 14 7 36 10 50 3
14 9 48 13 75 9 62 9 616 -1 780 -3 66 -8 149 -10 185 -2 36 -7 106 -10 155
-10 135 -15 202 -21 290 -3 44 -7 100 -10 125 -2 25 -7 79 -10 120 -8 100 -18
172 -40 275 -12 58 -66 200 -97 255 -58 103 -142 197 -232 259 -52 36 -178 97
-217 105 -13 3 -42 10 -64 15 -59 15 -149 25 -238 25 -65 0 -76 3 -71 16 15
38 31 99 27 104 -2 2 20 22 50 44 149 111 186 250 107 413 -23 48 -26 64 -20
104 18 121 -20 237 -93 279 -23 14 -59 28 -80 32 -42 7 -43 9 -52 69 -17 121
-73 222 -152 274 -60 40 -110 54 -203 56 -71 1 -77 3 -110 36 -51 48 -78 69
-93 69 -7 0 -18 5 -24 11 -18 18 -113 20 -175 4 -33 -8 -62 -15 -64 -15 -2 0
-4 22 -4 48 0 70 -18 157 -45 219 -53 118 -250 253 -445 304 -78 20 -236 20
-315 -1z m1904 -2816 c17 -14 48 -62 70 -107 54 -114 73 -219 96 -512 16 -209
25 -914 13 -1005 -4 -25 -12 -58 -18 -75 -6 -16 -11 -32 -11 -35 1 -30 -41
-127 -82 -189 -76 -113 -197 -183 -332 -193 -36 -3 -40 -1 -41 22 -1 14 -5 97
-8 185 -4 88 -9 192 -11 230 -4 77 -14 295 -20 445 -2 52 -6 142 -9 200 -3 58
-8 168 -11 245 -3 77 -8 172 -10 210 -2 39 -7 139 -10 223 -6 140 -5 153 12
159 9 4 29 20 42 36 52 62 128 130 176 158 64 37 113 38 154 3z"/>
</g>
</svg>
